<mxfile host="app.diagrams.net" agent="Mozilla/5.0 (X11; Linux x86_64; rv:130.0) Gecko/20100101 Firefox/130.0" version="24.7.16">
  <diagram name="第 1 页" id="Ke4n1aUrERizy3qtIoPj">
    <mxGraphModel dx="1195" dy="693" grid="1" gridSize="10" guides="1" tooltips="1" connect="1" arrows="1" fold="1" page="1" pageScale="1" pageWidth="827" pageHeight="1169" math="0" shadow="0">
      <root>
        <mxCell id="0" />
        <mxCell id="1" parent="0" />
        <mxCell id="p7cNvi0hcq_Y1U_KIUsZ-1" value="&lt;span data-slate-fragment=&quot;JTVCJTdCJTIydHlwZSUyMiUzQSUyMnBhcmFncmFwaCUyMiUyQyUyMmNoaWxkcmVuJTIyJTNBJTVCJTdCJTIydGV4dCUyMiUzQSUyMkFwYXJ0bWVudCUyME1hbmFnZW1lbnQlMjBTeXN0ZW0lMjIlMkMlMjJzZW50ZW5jZSUyMiUzQTAlMkMlMjJjaGlsZFNlbnRlbmNlJTIyJTNBMCU3RCU1RCU3RCU1RA==&quot; style=&quot;white-space: pre;&quot;&gt;Apartment Management System&lt;/span&gt;&lt;div&gt;公寓管理系统&lt;/div&gt;" style="rounded=0;whiteSpace=wrap;html=1;verticalAlign=top;horizontal=1;" vertex="1" parent="1">
          <mxGeometry x="150" y="70" width="520" height="830" as="geometry" />
        </mxCell>
        <mxCell id="p7cNvi0hcq_Y1U_KIUsZ-12" style="rounded=0;orthogonalLoop=1;jettySize=auto;html=1;entryX=0;entryY=0.5;entryDx=0;entryDy=0;endArrow=none;endFill=0;exitX=1;exitY=0.3333333333333333;exitDx=0;exitDy=0;exitPerimeter=0;" edge="1" parent="1" source="p7cNvi0hcq_Y1U_KIUsZ-2" target="p7cNvi0hcq_Y1U_KIUsZ-9">
          <mxGeometry relative="1" as="geometry" />
        </mxCell>
        <mxCell id="p7cNvi0hcq_Y1U_KIUsZ-2" value="Administrator&lt;br&gt;管理员" style="shape=umlActor;verticalLabelPosition=bottom;verticalAlign=top;html=1;outlineConnect=0;" vertex="1" parent="1">
          <mxGeometry x="50" y="280" width="30" height="60" as="geometry" />
        </mxCell>
        <mxCell id="p7cNvi0hcq_Y1U_KIUsZ-13" style="rounded=0;orthogonalLoop=1;jettySize=auto;html=1;entryX=0;entryY=0.5;entryDx=0;entryDy=0;endArrow=none;endFill=0;exitX=1;exitY=0.3333333333333333;exitDx=0;exitDy=0;exitPerimeter=0;" edge="1" parent="1" source="p7cNvi0hcq_Y1U_KIUsZ-3" target="p7cNvi0hcq_Y1U_KIUsZ-9">
          <mxGeometry relative="1" as="geometry" />
        </mxCell>
        <mxCell id="p7cNvi0hcq_Y1U_KIUsZ-3" value="&lt;div&gt;Customer&lt;/div&gt;&lt;div&gt;租户&lt;br&gt;&lt;/div&gt;" style="shape=umlActor;verticalLabelPosition=bottom;verticalAlign=top;html=1;outlineConnect=0;" vertex="1" parent="1">
          <mxGeometry x="50" y="580" width="30" height="60" as="geometry" />
        </mxCell>
        <mxCell id="p7cNvi0hcq_Y1U_KIUsZ-5" value="&lt;div&gt;Vistor&lt;/div&gt;&lt;div&gt;访客&lt;br&gt;&lt;/div&gt;" style="shape=umlActor;verticalLabelPosition=bottom;verticalAlign=top;html=1;outlineConnect=0;" vertex="1" parent="1">
          <mxGeometry x="700" y="430" width="30" height="60" as="geometry" />
        </mxCell>
        <mxCell id="p7cNvi0hcq_Y1U_KIUsZ-6" value="&lt;div&gt;Maintainer&lt;/div&gt;&lt;div&gt;维修员&lt;br&gt;&lt;/div&gt;" style="shape=umlActor;verticalLabelPosition=bottom;verticalAlign=top;html=1;outlineConnect=0;" vertex="1" parent="1">
          <mxGeometry x="700" y="260" width="30" height="60" as="geometry" />
        </mxCell>
        <mxCell id="p7cNvi0hcq_Y1U_KIUsZ-9" value="&lt;div&gt;login &amp;amp; register&lt;br&gt;&lt;/div&gt;&lt;div&gt;注册与登录&lt;/div&gt;" style="ellipse;whiteSpace=wrap;html=1;" vertex="1" parent="1">
          <mxGeometry x="350" y="130" width="105" height="70" as="geometry" />
        </mxCell>
        <mxCell id="p7cNvi0hcq_Y1U_KIUsZ-14" style="rounded=0;orthogonalLoop=1;jettySize=auto;html=1;entryX=1;entryY=0.5;entryDx=0;entryDy=0;endArrow=none;endFill=0;exitX=0;exitY=0.3333333333333333;exitDx=0;exitDy=0;exitPerimeter=0;" edge="1" parent="1" source="p7cNvi0hcq_Y1U_KIUsZ-6" target="p7cNvi0hcq_Y1U_KIUsZ-9">
          <mxGeometry relative="1" as="geometry">
            <mxPoint x="130" y="418" as="sourcePoint" />
            <mxPoint x="270" y="210" as="targetPoint" />
          </mxGeometry>
        </mxCell>
        <mxCell id="p7cNvi0hcq_Y1U_KIUsZ-15" style="rounded=0;orthogonalLoop=1;jettySize=auto;html=1;entryX=1;entryY=0.5;entryDx=0;entryDy=0;endArrow=none;endFill=0;exitX=0;exitY=0.3333333333333333;exitDx=0;exitDy=0;exitPerimeter=0;" edge="1" parent="1" source="p7cNvi0hcq_Y1U_KIUsZ-5" target="p7cNvi0hcq_Y1U_KIUsZ-9">
          <mxGeometry relative="1" as="geometry">
            <mxPoint x="700" y="270" as="sourcePoint" />
            <mxPoint x="390" y="210" as="targetPoint" />
          </mxGeometry>
        </mxCell>
        <mxCell id="p7cNvi0hcq_Y1U_KIUsZ-16" value="&lt;div&gt;apartment info manage&lt;br&gt;&lt;/div&gt;&lt;div&gt;公寓信息管理&lt;/div&gt;" style="ellipse;whiteSpace=wrap;html=1;" vertex="1" parent="1">
          <mxGeometry x="305" y="375" width="105" height="70" as="geometry" />
        </mxCell>
        <mxCell id="p7cNvi0hcq_Y1U_KIUsZ-17" style="rounded=0;orthogonalLoop=1;jettySize=auto;html=1;entryX=0;entryY=0.5;entryDx=0;entryDy=0;endArrow=none;endFill=0;exitX=1;exitY=0.3333333333333333;exitDx=0;exitDy=0;exitPerimeter=0;" edge="1" parent="1" source="p7cNvi0hcq_Y1U_KIUsZ-2" target="p7cNvi0hcq_Y1U_KIUsZ-16">
          <mxGeometry relative="1" as="geometry">
            <mxPoint x="130" y="270" as="sourcePoint" />
            <mxPoint x="270" y="210" as="targetPoint" />
          </mxGeometry>
        </mxCell>
        <mxCell id="p7cNvi0hcq_Y1U_KIUsZ-18" value="&lt;div&gt;customer manage&lt;br&gt;&lt;/div&gt;&lt;div&gt;租户管理&lt;/div&gt;" style="ellipse;whiteSpace=wrap;html=1;" vertex="1" parent="1">
          <mxGeometry x="300" y="470" width="105" height="70" as="geometry" />
        </mxCell>
        <mxCell id="p7cNvi0hcq_Y1U_KIUsZ-19" style="rounded=0;orthogonalLoop=1;jettySize=auto;html=1;entryX=0;entryY=0.5;entryDx=0;entryDy=0;endArrow=none;endFill=0;exitX=1;exitY=0.3333333333333333;exitDx=0;exitDy=0;exitPerimeter=0;" edge="1" parent="1" source="p7cNvi0hcq_Y1U_KIUsZ-2" target="p7cNvi0hcq_Y1U_KIUsZ-18">
          <mxGeometry relative="1" as="geometry">
            <mxPoint x="130" y="270" as="sourcePoint" />
            <mxPoint x="270" y="310" as="targetPoint" />
          </mxGeometry>
        </mxCell>
        <mxCell id="p7cNvi0hcq_Y1U_KIUsZ-20" value="&lt;div&gt;visitor registration&lt;/div&gt;&lt;div&gt;访客登记&lt;/div&gt;" style="ellipse;whiteSpace=wrap;html=1;" vertex="1" parent="1">
          <mxGeometry x="425" y="320" width="105" height="70" as="geometry" />
        </mxCell>
        <mxCell id="p7cNvi0hcq_Y1U_KIUsZ-22" style="rounded=0;orthogonalLoop=1;jettySize=auto;html=1;entryX=0;entryY=0.5;entryDx=0;entryDy=0;endArrow=none;endFill=0;exitX=1;exitY=0.3333333333333333;exitDx=0;exitDy=0;exitPerimeter=0;" edge="1" parent="1" source="p7cNvi0hcq_Y1U_KIUsZ-3" target="p7cNvi0hcq_Y1U_KIUsZ-21">
          <mxGeometry relative="1" as="geometry">
            <mxPoint x="130" y="430" as="sourcePoint" />
            <mxPoint x="270" y="210" as="targetPoint" />
          </mxGeometry>
        </mxCell>
        <mxCell id="p7cNvi0hcq_Y1U_KIUsZ-24" style="rounded=0;orthogonalLoop=1;jettySize=auto;html=1;entryX=1;entryY=0.5;entryDx=0;entryDy=0;endArrow=none;endFill=0;exitX=0;exitY=0.3333333333333333;exitDx=0;exitDy=0;exitPerimeter=0;" edge="1" parent="1" source="p7cNvi0hcq_Y1U_KIUsZ-5" target="p7cNvi0hcq_Y1U_KIUsZ-20">
          <mxGeometry relative="1" as="geometry">
            <mxPoint x="700" y="480" as="sourcePoint" />
            <mxPoint x="390" y="260" as="targetPoint" />
          </mxGeometry>
        </mxCell>
        <mxCell id="p7cNvi0hcq_Y1U_KIUsZ-21" value="repair request&lt;br&gt;&lt;div&gt;维修请求&lt;/div&gt;" style="ellipse;whiteSpace=wrap;html=1;" vertex="1" parent="1">
          <mxGeometry x="357.5" y="225" width="105" height="70" as="geometry" />
        </mxCell>
        <mxCell id="p7cNvi0hcq_Y1U_KIUsZ-25" style="rounded=0;orthogonalLoop=1;jettySize=auto;html=1;entryX=0;entryY=0.5;entryDx=0;entryDy=0;endArrow=none;endFill=0;exitX=1;exitY=0.3333333333333333;exitDx=0;exitDy=0;exitPerimeter=0;" edge="1" parent="1" source="p7cNvi0hcq_Y1U_KIUsZ-2" target="p7cNvi0hcq_Y1U_KIUsZ-20">
          <mxGeometry relative="1" as="geometry">
            <mxPoint x="140" y="260" as="sourcePoint" />
            <mxPoint x="360" y="345" as="targetPoint" />
          </mxGeometry>
        </mxCell>
        <mxCell id="p7cNvi0hcq_Y1U_KIUsZ-26" value="&lt;div&gt;&lt;span data-slate-fragment=&quot;JTVCJTdCJTIydHlwZSUyMiUzQSUyMnBhcmFncmFwaCUyMiUyQyUyMmNoaWxkcmVuJTIyJTNBJTVCJTdCJTIydGV4dCUyMiUzQSUyMkFwYXJ0bWVudCUyMHJlbnRhbCUyMiUyQyUyMnNlbnRlbmNlJTIyJTNBMCUyQyUyMmNoaWxkU2VudGVuY2UlMjIlM0EwJTdEJTVEJTdEJTVE&quot; style=&quot;white-space: pre;&quot;&gt;apartment rental&lt;/span&gt;&lt;/div&gt;&lt;div&gt;公寓租赁&lt;/div&gt;" style="ellipse;whiteSpace=wrap;html=1;" vertex="1" parent="1">
          <mxGeometry x="320" y="560" width="105" height="70" as="geometry" />
        </mxCell>
        <mxCell id="p7cNvi0hcq_Y1U_KIUsZ-27" style="rounded=0;orthogonalLoop=1;jettySize=auto;html=1;entryX=0;entryY=0.5;entryDx=0;entryDy=0;endArrow=none;endFill=0;exitX=1;exitY=0.3333333333333333;exitDx=0;exitDy=0;exitPerimeter=0;" edge="1" parent="1" source="p7cNvi0hcq_Y1U_KIUsZ-3" target="p7cNvi0hcq_Y1U_KIUsZ-26">
          <mxGeometry relative="1" as="geometry">
            <mxPoint x="130" y="430" as="sourcePoint" />
            <mxPoint x="400" y="445" as="targetPoint" />
          </mxGeometry>
        </mxCell>
        <mxCell id="p7cNvi0hcq_Y1U_KIUsZ-28" style="rounded=0;orthogonalLoop=1;jettySize=auto;html=1;endArrow=none;endFill=0;entryX=0;entryY=0.5;entryDx=0;entryDy=0;exitX=1;exitY=0.3333333333333333;exitDx=0;exitDy=0;exitPerimeter=0;" edge="1" parent="1" source="p7cNvi0hcq_Y1U_KIUsZ-2" target="p7cNvi0hcq_Y1U_KIUsZ-26">
          <mxGeometry relative="1" as="geometry">
            <mxPoint x="122" y="269" as="sourcePoint" />
            <mxPoint x="262" y="524" as="targetPoint" />
          </mxGeometry>
        </mxCell>
        <mxCell id="p7cNvi0hcq_Y1U_KIUsZ-29" style="rounded=0;orthogonalLoop=1;jettySize=auto;html=1;entryX=1;entryY=0.5;entryDx=0;entryDy=0;endArrow=none;endFill=0;exitX=0;exitY=0.3333333333333333;exitDx=0;exitDy=0;exitPerimeter=0;" edge="1" parent="1" source="p7cNvi0hcq_Y1U_KIUsZ-6" target="p7cNvi0hcq_Y1U_KIUsZ-21">
          <mxGeometry relative="1" as="geometry">
            <mxPoint x="655" y="300" as="sourcePoint" />
            <mxPoint x="330" y="215" as="targetPoint" />
          </mxGeometry>
        </mxCell>
        <mxCell id="p7cNvi0hcq_Y1U_KIUsZ-30" style="rounded=0;orthogonalLoop=1;jettySize=auto;html=1;entryX=0;entryY=0.5;entryDx=0;entryDy=0;endArrow=none;endFill=0;exitX=1;exitY=0.3333333333333333;exitDx=0;exitDy=0;exitPerimeter=0;" edge="1" parent="1" source="p7cNvi0hcq_Y1U_KIUsZ-2" target="p7cNvi0hcq_Y1U_KIUsZ-21">
          <mxGeometry relative="1" as="geometry">
            <mxPoint x="130" y="270" as="sourcePoint" />
            <mxPoint x="400" y="355" as="targetPoint" />
          </mxGeometry>
        </mxCell>
        <mxCell id="p7cNvi0hcq_Y1U_KIUsZ-31" value="账单管理" style="ellipse;whiteSpace=wrap;html=1;" vertex="1" parent="1">
          <mxGeometry x="320" y="650" width="105" height="70" as="geometry" />
        </mxCell>
        <mxCell id="p7cNvi0hcq_Y1U_KIUsZ-32" value="通知公告" style="ellipse;whiteSpace=wrap;html=1;" vertex="1" parent="1">
          <mxGeometry x="270" y="730" width="105" height="70" as="geometry" />
        </mxCell>
        <mxCell id="p7cNvi0hcq_Y1U_KIUsZ-33" style="rounded=0;orthogonalLoop=1;jettySize=auto;html=1;endArrow=none;endFill=0;entryX=0;entryY=0.5;entryDx=0;entryDy=0;exitX=1;exitY=0.3333333333333333;exitDx=0;exitDy=0;exitPerimeter=0;" edge="1" parent="1" source="p7cNvi0hcq_Y1U_KIUsZ-2" target="p7cNvi0hcq_Y1U_KIUsZ-31">
          <mxGeometry relative="1" as="geometry">
            <mxPoint x="130" y="270" as="sourcePoint" />
            <mxPoint x="350" y="595" as="targetPoint" />
          </mxGeometry>
        </mxCell>
        <mxCell id="p7cNvi0hcq_Y1U_KIUsZ-34" style="rounded=0;orthogonalLoop=1;jettySize=auto;html=1;endArrow=none;endFill=0;entryX=0;entryY=0.5;entryDx=0;entryDy=0;exitX=1;exitY=0.3333333333333333;exitDx=0;exitDy=0;exitPerimeter=0;" edge="1" parent="1" source="p7cNvi0hcq_Y1U_KIUsZ-3" target="p7cNvi0hcq_Y1U_KIUsZ-31">
          <mxGeometry relative="1" as="geometry">
            <mxPoint x="50" y="300" as="sourcePoint" />
            <mxPoint x="270" y="715" as="targetPoint" />
          </mxGeometry>
        </mxCell>
        <mxCell id="p7cNvi0hcq_Y1U_KIUsZ-35" style="rounded=0;orthogonalLoop=1;jettySize=auto;html=1;endArrow=none;endFill=0;entryX=0;entryY=0.5;entryDx=0;entryDy=0;exitX=1;exitY=0.3333333333333333;exitDx=0;exitDy=0;exitPerimeter=0;" edge="1" parent="1" source="p7cNvi0hcq_Y1U_KIUsZ-2" target="p7cNvi0hcq_Y1U_KIUsZ-32">
          <mxGeometry relative="1" as="geometry">
            <mxPoint x="130" y="270" as="sourcePoint" />
            <mxPoint x="350" y="685" as="targetPoint" />
          </mxGeometry>
        </mxCell>
        <mxCell id="p7cNvi0hcq_Y1U_KIUsZ-37" value="安全监控" style="ellipse;whiteSpace=wrap;html=1;" vertex="1" parent="1">
          <mxGeometry x="210" y="810" width="105" height="70" as="geometry" />
        </mxCell>
        <mxCell id="p7cNvi0hcq_Y1U_KIUsZ-38" style="rounded=0;orthogonalLoop=1;jettySize=auto;html=1;endArrow=none;endFill=0;entryX=0;entryY=0;entryDx=0;entryDy=0;exitX=1;exitY=0.3333333333333333;exitDx=0;exitDy=0;exitPerimeter=0;" edge="1" parent="1" source="p7cNvi0hcq_Y1U_KIUsZ-2" target="p7cNvi0hcq_Y1U_KIUsZ-37">
          <mxGeometry relative="1" as="geometry">
            <mxPoint x="100" y="290" as="sourcePoint" />
            <mxPoint x="320" y="785" as="targetPoint" />
          </mxGeometry>
        </mxCell>
      </root>
    </mxGraphModel>
  </diagram>
</mxfile>
